<svg width="1832" height="10451" viewBox="0 0 1832 10451" fill="none" xmlns="http://www.w3.org/2000/svg">
<line x1="234.445" y1="8611" x2="234.445" y2="9162.72" stroke="black"/>
<line x1="2" y1="9162.5" x2="1827" y2="9162.5" stroke="black"/>
<line x1="235.076" y1="8671.42" x2="224.9" y2="8671.42" stroke="black"/>
<line x1="235.076" y1="8734.22" x2="224.9" y2="8734.22" stroke="black"/>
<line x1="235.076" y1="8797.89" x2="224.9" y2="8797.89" stroke="black"/>
<line x1="235.076" y1="8861.56" x2="224.9" y2="8861.56" stroke="black"/>
<line x1="235.076" y1="8924.37" x2="224.9" y2="8924.37" stroke="black"/>
<line x1="235.076" y1="8988.03" x2="224.9" y2="8988.03" stroke="black"/>
<line x1="235.076" y1="9048.84" x2="226.031" y2="9048.84" stroke="black"/>
<line x1="235.076" y1="9104.43" x2="226.031" y2="9104.43" stroke="black"/>
<line x1="1132.5" y1="7787" x2="1132.5" y2="8204" stroke="black"/>
<path d="M2 8204L1824 8204" stroke="black"/>
<line x1="1133" y1="7831.5" x2="1124" y2="7831.5" stroke="black"/>
<line x1="1133" y1="7894.19" x2="1124" y2="7894.19" stroke="black"/>
<line x1="1133" y1="7956.87" x2="1124" y2="7956.87" stroke="black"/>
<line x1="1133" y1="8018.7" x2="1124" y2="8018.7" stroke="black"/>
<line x1="1133" y1="8081.38" x2="1124" y2="8081.38" stroke="black"/>
<line x1="1133" y1="8141.5" x2="1124" y2="8141.5" stroke="black"/>
<line x1="1160.5" y1="8203.98" x2="1160.53" y2="8212.98" stroke="black"/>
<line x1="1245.5" y1="8203.98" x2="1245.5" y2="8212.98" stroke="black"/>
<line x1="1330.5" y1="8203.98" x2="1330.5" y2="8212.98" stroke="black"/>
<line x1="1415.43" y1="8203.98" x2="1415.46" y2="8212.98" stroke="black"/>
<line x1="1585.19" y1="8203.98" x2="1585.22" y2="8212.98" stroke="black"/>
<line x1="1753.51" y1="8203.98" x2="1753.54" y2="8212.98" stroke="black"/>
<line x1="1669.77" y1="8203.98" x2="1669.8" y2="8212.98" stroke="black"/>
<line x1="1500.61" y1="8203.98" x2="1500.64" y2="8212.98" stroke="black"/>
<line x1="613.85" y1="6720.06" x2="538.296" y2="6720.06" stroke="black"/>
<line x1="613.85" y1="6793.18" x2="572.417" y2="6793.18" stroke="black"/>
<line x1="616.288" y1="6865.48" x2="561.043" y2="6865.48" stroke="black"/>
<line x1="652.034" y1="6901.23" x2="588.666" y2="6901.23" stroke="black"/>
<path d="M936.786 6901.54H780.802" stroke="black"/>
<path d="M937.193 6972.22H802.331" stroke="black"/>
<path d="M834.828 7007.97H704.841" stroke="black"/>
<path d="M673.969 7043.71H651.222" stroke="black"/>
<path d="M595.165 7043.71H538.296" stroke="black"/>
<path d="M595.165 7079.46H538.296" stroke="black"/>
<path d="M860.825 7079.46H717.84" stroke="black"/>
<path d="M688.593 6972.22H588.666" stroke="black"/>
<path d="M1016.81 6936.48H816.955" stroke="black"/>
<line x1="584.603" y1="6828.92" x2="517.985" y2="6828.92" stroke="black"/>
<line x1="607.351" y1="6936.98" x2="507.424" y2="6936.98" stroke="black"/>
<line x1="607.351" y1="7008.47" x2="507.424" y2="7008.47" stroke="black"/>
<line x1="578.104" y1="7115.71" x2="505.799" y2="7115.71" stroke="black"/>
<line x1="628.474" y1="7151.45" x2="601.664" y2="7151.45" stroke="black"/>
<line x1="762.523" y1="7115.71" x2="667.47" y2="7115.71" stroke="black"/>
<line x1="846.202" y1="7151.45" x2="729.214" y2="7151.45" stroke="black"/>
<line x1="869.762" y1="7187.2" x2="803.144" y2="7187.2" stroke="black"/>
<path d="M695.905 7187.51H588.665" stroke="black"/>
<line x1="604.914" y1="7222.95" x2="528.547" y2="7222.95" stroke="black"/>
<line x1="869.762" y1="7222.95" x2="781.208" y2="7222.95" stroke="black"/>
<line x1="980.251" y1="6828.92" x2="809.643" y2="6828.92" stroke="black"/>
<line x1="917.695" y1="6793.18" x2="736.525" y2="6793.18" stroke="black"/>
<line x1="916.882" y1="6865.48" x2="751.149" y2="6865.48" stroke="black"/>
<line x1="584.603" y1="6756.62" x2="352.252" y2="6756.62" stroke="black"/>
<line x1="884.385" y1="6720.06" x2="728.401" y2="6720.06" stroke="black"/>
<line x1="900.634" y1="6756.62" x2="712.965" y2="6756.62" stroke="black"/>
<line x1="538.796" y1="6712.25" x2="538.796" y2="6728.5" stroke="black"/>
<line x1="884.885" y1="6712.25" x2="884.885" y2="6728.5" stroke="black"/>
<line x1="352.752" y1="6747.99" x2="352.752" y2="6764.24" stroke="black"/>
<line x1="901.134" y1="6748.81" x2="901.134" y2="6765.06" stroke="black"/>
<line x1="571.292" y1="6785.37" x2="571.292" y2="6801.61" stroke="black"/>
<line x1="918.195" y1="6785.37" x2="918.195" y2="6801.61" stroke="black"/>
<line x1="517.673" y1="6821.11" x2="517.673" y2="6837.36" stroke="black"/>
<line x1="980.751" y1="6821.11" x2="980.751" y2="6837.36" stroke="black"/>
<line x1="559.919" y1="6857.67" x2="559.919" y2="6873.92" stroke="black"/>
<line x1="916.57" y1="6857.67" x2="916.57" y2="6873.92" stroke="black"/>
<line x1="587.541" y1="6893.42" x2="587.541" y2="6909.67" stroke="black"/>
<line x1="936.068" y1="6893.42" x2="936.068" y2="6909.67" stroke="black"/>
<line x1="506.299" y1="6929.16" x2="506.299" y2="6945.41" stroke="black"/>
<line x1="1015.68" y1="6928.35" x2="1015.68" y2="6944.6" stroke="black"/>
<line x1="587.541" y1="6964.1" x2="587.541" y2="6980.35" stroke="black"/>
<line x1="936.88" y1="6964.1" x2="936.88" y2="6980.35" stroke="black"/>
<line x1="506.299" y1="7000.66" x2="506.299" y2="7016.91" stroke="black"/>
<line x1="835.328" y1="6999.84" x2="835.328" y2="7016.09" stroke="black"/>
<line x1="538.796" y1="7034.78" x2="538.796" y2="7051.03" stroke="black"/>
<line x1="674.469" y1="7035.59" x2="674.469" y2="7051.84" stroke="black"/>
<line x1="538.796" y1="7071.34" x2="538.796" y2="7087.58" stroke="black"/>
<line x1="861.325" y1="7071.34" x2="861.325" y2="7087.58" stroke="black"/>
<line x1="504.674" y1="7107.9" x2="504.674" y2="7124.14" stroke="black"/>
<line x1="763.023" y1="7107.9" x2="763.023" y2="7124.14" stroke="black"/>
<line x1="600.539" y1="7143.64" x2="600.539" y2="7159.89" stroke="black"/>
<line x1="846.702" y1="7143.64" x2="846.702" y2="7159.89" stroke="black"/>
<line x1="587.541" y1="7179.39" x2="587.541" y2="7195.64" stroke="black"/>
<line x1="870.262" y1="7178.58" x2="870.262" y2="7194.82" stroke="black"/>
<line x1="528.234" y1="7215.13" x2="528.234" y2="7231.38" stroke="black"/>
<line x1="870.262" y1="7215.13" x2="870.262" y2="7231.38" stroke="black"/>
<line x1="284.821" y1="6719.25" x2="277.51" y2="6719.25" stroke="black"/>
<line x1="284.821" y1="6822.96" x2="277.51" y2="6822.96" stroke="black"/>
<line x1="284.821" y1="6932.76" x2="277.51" y2="6932.76" stroke="black"/>
<line x1="284.821" y1="6969.37" x2="277.51" y2="6969.37" stroke="black"/>
<line x1="284.821" y1="7005.97" x2="277.51" y2="7005.97" stroke="black"/>
<line x1="284.821" y1="6896.16" x2="277.51" y2="6896.16" stroke="black"/>
<line x1="284.821" y1="6859.56" x2="277.51" y2="6859.56" stroke="black"/>
<line x1="284.821" y1="6786.35" x2="277.51" y2="6786.35" stroke="black"/>
<path d="M284.821 6755.35L277.51 6755.35" stroke="black"/>
<line x1="284.821" y1="7042.58" x2="277.51" y2="7042.58" stroke="black"/>
<line x1="284.821" y1="7079.17" x2="277.51" y2="7079.17" stroke="black"/>
<line x1="284.821" y1="7115.77" x2="277.51" y2="7115.77" stroke="black"/>
<line x1="284.821" y1="7228.63" x2="277.51" y2="7228.63" stroke="black"/>
<line x1="284.821" y1="7188.99" x2="277.51" y2="7188.99" stroke="black"/>
<line x1="284.821" y1="7152.37" x2="277.51" y2="7152.37" stroke="black"/>
<line x1="295.07" y1="7245.12" x2="295.095" y2="7252.44" stroke="black"/>
<line y1="-0.5" x2="7.31176" y2="-0.5" transform="matrix(0.00333671 0.999994 -0.999994 0.0033385 423.516 7245.15)" stroke="black"/>
<line y1="-0.5" x2="7.31176" y2="-0.5" transform="matrix(0.00333671 0.999994 -0.999994 0.0033385 551.843 7245.08)" stroke="black"/>
<line y1="-0.5" x2="7.31176" y2="-0.5" transform="matrix(0.00333671 0.999994 -0.999994 0.0033385 680.511 7245.07)" stroke="black"/>
<line y1="-0.5" x2="7.31176" y2="-0.5" transform="matrix(0.00333711 0.999994 -0.999994 0.0033385 937.508 7245)" stroke="black"/>
<line y1="-0.5" x2="7.31176" y2="-0.5" transform="matrix(0.00333711 0.999994 -0.999994 0.0033385 1065.56 7244.96)" stroke="black"/>
<line y1="-0.5" x2="7.31176" y2="-0.5" transform="matrix(0.00333711 0.999994 -0.999994 0.0033385 809.457 7245.04)" stroke="black"/>
<line x1="1134" y1="6364.5" x2="1827" y2="6364.5" stroke="black"/>
<line x1="1133" y1="5916.5" x2="1124" y2="5916.5" stroke="black"/>
<line x1="1133" y1="5991" x2="1124" y2="5991" stroke="black"/>
<line x1="1133" y1="6065.5" x2="1124" y2="6065.5" stroke="black"/>
<line x1="1133" y1="6140" x2="1124" y2="6140" stroke="black"/>
<line x1="1133" y1="6214.5" x2="1124" y2="6214.5" stroke="black"/>
<line x1="1133" y1="6289" x2="1124" y2="6289" stroke="black"/>
<line x1="1164.03" y1="6365" x2="1164.03" y2="6372.12" stroke="black"/>
<line x1="1300.02" y1="6365" x2="1300.02" y2="6372.12" stroke="black"/>
<line x1="1436.02" y1="6365" x2="1436.02" y2="6372.12" stroke="black"/>
<line x1="1572.02" y1="6365" x2="1572.02" y2="6372.12" stroke="black"/>
<line x1="1708.01" y1="6365" x2="1708.01" y2="6372.12" stroke="black"/>
<line x1="1245.82" y1="5459.95" x2="1245.82" y2="5466.88" stroke="black"/>
<line x1="1132" y1="5459.5" x2="1824" y2="5459.5" stroke="black"/>
<line x1="1133" y1="5025.5" x2="1124" y2="5025.5" stroke="black"/>
<line x1="1133" y1="5097.5" x2="1124" y2="5097.5" stroke="black"/>
<line x1="1133" y1="5170.5" x2="1124" y2="5170.5" stroke="black"/>
<line x1="1133" y1="5243.5" x2="1124" y2="5243.5" stroke="black"/>
<line x1="1133" y1="5315.5" x2="1124" y2="5315.5" stroke="black"/>
<line x1="1133" y1="5388.5" x2="1124" y2="5388.5" stroke="black"/>
<line x1="1134" y1="5459.5" x2="1125" y2="5459.5" stroke="black"/>
<line x1="1462.66" y1="5459.95" x2="1462.66" y2="5466.88" stroke="black"/>
<line x1="1625.57" y1="5459.95" x2="1625.57" y2="5466.88" stroke="black"/>
<line x1="1734.18" y1="5459.95" x2="1734.18" y2="5466.88" stroke="black"/>
<line x1="863" y1="47.5" x2="979" y2="47.5" stroke="black"/>
<line x1="921.5" y1="2.18557e-08" x2="921.5" y2="64" stroke="black"/>
<line x1="979" y1="10403.5" x2="863" y2="10403.5" stroke="black"/>
<line x1="920.5" y1="10451" x2="920.5" y2="10387" stroke="black"/>
<line x1="10" y1="317.5" x2="1832" y2="317.5" stroke="black"/>
<line x1="2" y1="1109.5" x2="1824" y2="1109.5" stroke="black"/>
<line x1="2" y1="1944.5" x2="1223" y2="1944.5" stroke="black"/>
<line x1="2" y1="2101.5" x2="1824" y2="2101.5" stroke="black"/>
<line x1="2" y1="2636.5" x2="1824" y2="2636.5" stroke="black"/>
<line x1="2" y1="3598.5" x2="1824" y2="3598.5" stroke="black"/>
<line x1="2" y1="4554.5" x2="1824" y2="4554.5" stroke="black"/>
<line x1="609" y1="4987.5" x2="1824" y2="4987.5" stroke="black"/>
<line x1="2" y1="5820.5" x2="1824" y2="5820.5" stroke="black"/>
<line x1="2" y1="6364.5" x2="1134" y2="6364.5" stroke="black"/>
<line x1="2" y1="6696.5" x2="1827" y2="6696.5" stroke="black"/>
<line x1="2" y1="7363.5" x2="1827" y2="7363.5" stroke="black"/>
<line x1="2" y1="8074.5" x2="610" y2="8074.5" stroke="black"/>
<line x1="2" y1="8610.5" x2="1827" y2="8610.5" stroke="black"/>
<line x1="2" y1="9289.5" x2="1827" y2="9289.5" stroke="black"/>
<line x1="2" y1="9971.5" x2="609" y2="9971.5" stroke="black"/>
<line x1="4.37114e-08" y1="10134.5" x2="1827" y2="10134.5" stroke="black"/>
<line x1="609" y1="7707.5" x2="1827" y2="7707.5" stroke="black"/>
<line x1="2" y1="5459.5" x2="1125" y2="5459.5" stroke="black"/>
<line x1="2" y1="5308.5" x2="609" y2="5308.5" stroke="black"/>
<line x1="2" y1="1276.5" x2="1223" y2="1276.5" stroke="black"/>
<line x1="641.5" y1="318" x2="641.5" y2="1110" stroke="black"/>
<line x1="1223.5" y1="1110" x2="1223.5" y2="2102" stroke="black"/>
<line x1="921.5" y1="2103" x2="921.5" y2="2637" stroke="black"/>
<line x1="609.5" y1="4555" x2="609.5" y2="5460" stroke="black"/>
<line x1="609.5" y1="7364" x2="609.5" y2="8204" stroke="black"/>
<line x1="609.5" y1="9290" x2="609.5" y2="10135" stroke="black"/>
<line x1="1072.5" y1="8611" x2="1072.5" y2="9290" stroke="black"/>
<line x1="1132.5" y1="5460" x2="1132.5" y2="6365" stroke="black"/>
<line x1="1132.5" y1="7708" x2="1132.5" y2="8169" stroke="black"/>
<line x1="1132.5" y1="4988" x2="1132.5" y2="5460" stroke="black"/>
<line x1="1216.5" y1="2675" x2="1216.5" y2="3565" stroke="black"/>
<line x1="609.5" y1="2675" x2="609.5" y2="3566" stroke="black"/>
<line x1="1216.5" y1="3631" x2="1216.5" y2="4515" stroke="black"/>
<line x1="609.5" y1="3631" x2="609.5" y2="4515" stroke="black"/>
<path d="M1787.82 5400.18C1787.92 5400.27 1788.08 5400.27 1788.18 5400.18L1789.77 5398.59C1789.87 5398.49 1789.87 5398.33 1789.77 5398.23C1789.67 5398.13 1789.51 5398.13 1789.41 5398.23L1788 5399.65L1786.59 5398.23C1786.49 5398.13 1786.33 5398.13 1786.23 5398.23C1786.13 5398.33 1786.13 5398.49 1786.23 5398.59L1787.82 5400.18ZM1787.75 5386V5400H1788.25V5386H1787.75Z" fill="black"/>
<path d="M1333.82 6193.18C1333.92 6193.27 1334.08 6193.27 1334.18 6193.18L1335.77 6191.59C1335.87 6191.49 1335.87 6191.33 1335.77 6191.23C1335.67 6191.13 1335.51 6191.13 1335.41 6191.23L1334 6192.65L1332.59 6191.23C1332.49 6191.13 1332.33 6191.13 1332.23 6191.23C1332.13 6191.33 1332.13 6191.49 1332.23 6191.59L1333.82 6193.18ZM1333.75 6179V6193H1334.25V6179H1333.75Z" fill="black"/>
<path d="M1578.82 8043.18C1578.92 8043.27 1579.08 8043.27 1579.18 8043.18L1580.77 8041.59C1580.87 8041.49 1580.87 8041.33 1580.77 8041.23C1580.67 8041.13 1580.51 8041.13 1580.41 8041.23L1579 8042.65L1577.59 8041.23C1577.49 8041.13 1577.33 8041.13 1577.23 8041.23C1577.13 8041.33 1577.13 8041.49 1577.23 8041.59L1578.82 8043.18ZM1578.75 8029V8043H1579.25V8029H1578.75Z" fill="black"/>
</svg>
