<svg width="589" height="496" viewBox="0 0 589 496" fill="none" xmlns="http://www.w3.org/2000/svg">
<path d="M93.7139 452.766C82.6775 476.711 26.6395 491.566 0 496C203.443 495.208 605.953 493.624 588.447 493.624C566.565 493.624 565.138 490.299 550.866 476.046C536.595 461.793 520.421 396.23 508.053 349.67C495.685 303.111 486.646 305.487 462.861 290.759C439.076 276.031 397.214 0 361.06 0C324.906 0 284.947 216.644 276.385 257.027C267.822 297.41 244.037 309.762 238.328 311.663C233.761 313.183 220.251 305.011 214.067 300.736C209.469 299.469 198.75 296.84 192.661 296.46C185.049 295.985 184.098 288.858 162.691 283.632C141.284 278.406 107.509 422.835 93.7139 452.766Z" fill="#A5A296" stroke="#292825" stroke-width="3"/>
</svg>
